# xmcd CD database file
#
# Track frame offsets:
#	150
#	17977
#	53756
#	71568
#
# Disc length: 1187 seconds
#
# Revision: 0
# Processed by: cddbd v1.5PL3 Copyright (c) Steve Scherf et al.
# Submitted via: CDex 1.51
#
DISCID=3004a104
DTITLE=Destiny's Child - Emotion
DYEAR=1900
DGENRE=R&B
TTITLE0=Emotion(Album Version)
TTITLE1=Emotion(Maurice's Nu Soul Mix)
TTITLE2=Emotion(Instrumental)
TTITLE3=Emotion(A cappellls)
EXTD=
EXTT0=
EXTT1=
EXTT2=
EXTT3=
PLAYORDER=
